#!OML:ASF E:\emotionWalksFemale\Project 1\Capture day 1\Session 1\Female1.ASF
:FULLY-SPECIFIED
:DEGREES
1042
root 8.87225 15.4209 -31.0976 173.615 -32.2935 177.271
lowerback -0.0889097 -1.47726 1.13927
upperback -6.65905 -2.15166 3.36772
thorax -6.79166 -1.18511 3.02622
lowerneck -3.0156 -4.92373 -1.62764
upperneck 11.0064 -5.98098 -13.7008
head 3.38946 -3.99671 -4.14349
rclavicle -1.00983e-013 -4.77083e-014
rhumerus -45.0478 -30.8641 -14.4632
rradius 41.6005
rwrist -19.8636
rhand 164.435 -65.6106
rfingers 7.12502
rthumb -169.38 -35.899
lclavicle -1.00983e-013 -4.77083e-014
lhumerus -52.9482 -18.0537 97.0052
lradius 39.5946
lwrist -24.1343
lhand -11.8777 -44.172
lfingers 7.12502
lthumb 14.1749 -14.6757
rfemur -16.5561 19.7545 9.3354
rtibia 33.3603
rfoot 0.431524 -8.65435
rtoes -31.8103
lfemur 3.59311 -11.0079 -35.9001
ltibia 31.2157
lfoot -7.66576 -9.89584
ltoes 26.5204
1043
root 8.86532 15.4299 -31.1785 173.544 -34.4893 177.888
lowerback -0.256147 -1.18156 1.67967
upperback -6.79096 -1.74853 3.27415
thorax -6.87159 -1.02252 2.60244
lowerneck -2.71566 -5.79617 -2.62533
upperneck 10.9147 -7.14585 -13.24
head 3.2994 -4.56196 -3.86005
rclavicle 2.34566e-014 -6.36111e-015
rhumerus -44.4696 -28.9064 -14.7748
rradius 41.7971
rwrist -21.2792
rhand 162.901 -65.2546
rfingers 7.12502
rthumb -170.861 -35.4727
lclavicle 2.34566e-014 -6.36111e-015
lhumerus -52.2066 -18.0315 95.9146
lradius 39.4828
lwrist -24.5326
lhand -11.6924 -43.5489
lfingers 7.12502
lthumb 14.3534 -14.0651
rfemur -15.3515 18.9491 9.96907
rtibia 32.9694
rfoot -0.627436 -9.36985
rtoes -33.6855
lfemur 3.47919 -11.1685 -35.1217
ltibia 31.806
lfoot -7.59218 -10.1515
ltoes 29.3565
1044
root 8.8501 15.4403 -31.2828 173.356 -36.841 178.433
lowerback -0.803263 -0.981175 1.83837
upperback -6.69451 -1.49077 3.28311
thorax -6.46373 -0.902965 2.48645
lowerneck -3.01504 -6.77207 -3.56598
upperneck 11.148 -8.36625 -13.0083
head 3.41065 -5.20134 -3.69818
rclavicle -4.65156e-014 7.31528e-014
rhumerus -45.2287 -31.1199 -10.6483
rradius 39.3344
rwrist -6.18418
rhand 172.041 -65.9638
rfingers 7.12502
rthumb -162.052 -36.772
lclavicle -4.65156e-014 7.31528e-014
lhumerus -51.0392 -17.3187 94.5211
lradius 39.4831
lwrist -25.1619
lhand -11.0246 -42.8434
lfingers 7.12502
lthumb 14.9968 -13.4065
rfemur -13.8746 18.5994 10.5707
rtibia 32.4872
rfoot -1.53983 -11.2349
rtoes -35.1216
lfemur 3.69003 -11.3164 -34.4756
ltibia 32.3088
lfoot -7.4324 -10.3884
ltoes 33.44
1045
root 8.83679 15.4516 -31.3856 173.015 -39.1722 179.123
lowerback -1.17998 -0.688188 2.15596
upperback -6.66676 -1.1034 3.23629
thorax -6.23484 -0.728869 2.23025
lowerneck -2.53999 -7.62989 -4.25954
upperneck 10.6715 -9.59559 -12.5062
head 3.52039 -5.74238 -3.83846
rclavicle 1.18476e-013 8.42847e-014
rhumerus -45.1195 -29.6876 -9.9693
rradius 38.8297
rwrist -4.90472
rhand 170.357 -66.1308
rfingers 7.12502
rthumb -163.673 -36.7982
lclavicle 1.18476e-013 8.42847e-014
lhumerus -50.481 -17.9353 93.8916
lradius 40.0901
lwrist -24.6724
lhand -11.3066 -42.198
lfingers 7.12502
lthumb 14.7251 -12.741
rfemur -12.3234 18.9861 11.3219
rtibia 31.8668
rfoot -1.85177 -13.7358
rtoes -36.0127
lfemur 3.89971 -11.3361 -33.7428
ltibia 32.8668
lfoot -7.77225 -10.587
ltoes 33.1348
1046
root 8.82816 15.4607 -31.4705 172.757 -41.5583 179.799
lowerback -1.37385 -0.422123 2.49075
upperback -6.75149 -0.74889 3.11826
thorax -6.22739 -0.575 1.90305
lowerneck -1.86895 -8.57913 -4.89959
upperneck 10.2331 -10.9278 -12.1241
head 3.22979 -6.34939 -3.55514
rclavicle 7.59357e-014 4.13472e-014
rhumerus -45.0432 -27.4244 -9.87886
rradius 38.6918
rwrist -4.65344
rhand 168.659 -65.5891
rfingers 7.12502
rthumb -165.308 -36.1297
lclavicle 7.59357e-014 4.13472e-014
lhumerus -49.7546 -18.0187 92.8517
lradius 40.2103
lwrist -24.2835
lhand -11.7627 -41.9483
lfingers 7.12502
lthumb 14.2856 -12.4597
rfemur -10.9493 19.4755 11.9733
rtibia 31.2062
rfoot -2.02427 -15.854
rtoes -36.2317
lfemur 3.84245 -11.3886 -33.028
ltibia 33.4684
lfoot -7.87597 -10.6066
ltoes 32.9247
1047
root 8.82467 15.465 -31.5477 172.57 -44.0704 180.541
lowerback -1.47759 -0.161102 2.86836
upperback -6.99712 -0.403619 2.94389
thorax -6.43945 -0.435942 1.50087
lowerneck -1.29186 -9.47232 -5.64488
upperneck 10.0816 -12.1609 -11.574
head 3.0983 -6.92457 -3.22649
rclavicle 2.0276e-014 4.13472e-014
rhumerus -45.2903 -24.6003 -9.85846
rradius 38.7656
rwrist -4.00903
rhand 168.459 -65.4603
rfingers 7.12502
rthumb -165.501 -35.9869
lclavicle 2.0276e-014 4.13472e-014
lhumerus -48.9295 -18.99 92.2758
lradius 39.8389
lwrist -23.0413
lhand -12.3281 -41.4335
lfingers 7.12502
lthumb 13.7408 -11.9072
rfemur -9.76641 19.1332 12.5984
rtibia 30.5072
rfoot -2.48079 -17.4412
rtoes -35.7687
lfemur 3.49023 -11.6066 -32.2472
ltibia 34.1922
lfoot -7.72894 -10.685
ltoes 34.9112
1048
root 8.82099 15.4654 -31.6326 172.24 -46.4865 181.446
lowerback -1.79051 0.213824 3.28593
upperback -7.16441 0.0827915 2.77256
thorax -6.4408 -0.228248 1.0699
lowerneck -0.816856 -10.3941 -6.6078
upperneck 10.055 -13.4163 -10.7771
head 3.08329 -7.5172 -2.81188
rclavicle 1.14898e-013 -1.90833e-014
rhumerus -45.8884 -21.6902 -9.58547
rradius 38.7042
rwrist -2.17208
rhand 169.353 -65.871
rfingers 7.12502
rthumb -164.639 -36.4616
lclavicle 1.14898e-013 -1.90833e-014
lhumerus -47.7789 -19.051 91.0896
lradius 39.726
lwrist -22.9012
lhand -12.5206 -41.4562
lfingers 7.12502
lthumb 13.5552 -11.9174
rfemur -8.70071 17.9783 13.3617
rtibia 29.8464
rfoot -3.1243 -18.6223
rtoes -34.7833
lfemur 3.23769 -11.8869 -31.3849
ltibia 34.9114
lfoot -8.10473 -10.9819
ltoes 35.525
